<?xml version="1.0" encoding="UTF-8"?>
<!DOCTYPE svg PUBLIC "-//W3C//DTD SVG 1.1//EN" "http://www.w3.org/Graphics/SVG/1.1/DTD/svg11.dtd">
<svg version="1.1" xmlns="http://www.w3.org/2000/svg" xmlns:xlink="http://www.w3.org/1999/xlink" x="0" y="0" width="500" height="500" viewBox="0, 0, 500, 500">
  <g id="Layer_1">
    <g>
      <path d="M81.314,332.496 L71.564,332.496 L71.564,367.725 L52.455,367.725 L52.455,277.768 L80.534,277.768 Q98.604,277.768 107.703,284.463 Q116.803,291.157 116.803,304.677 Q116.803,313.517 112.448,319.237 Q108.093,324.956 98.994,328.986 L122.263,367.725 L100.554,367.725 z M71.564,318.977 L81.574,318.977 Q89.244,318.977 93.144,315.532 Q97.044,312.087 97.044,304.677 Q97.044,297.787 92.949,294.602 Q88.854,291.417 80.144,291.417 L71.564,291.417 z" fill="#515E6D"/>
      <path d="M187.07,367.725 L171.081,367.725 L170.171,358.496 Q166.531,364.215 161.331,367.01 Q156.131,369.805 149.241,369.805 Q139.882,369.805 134.942,364.15 Q130.002,358.496 130.002,348.356 L130.002,298.827 L148.461,298.827 L148.461,346.016 Q148.461,351.476 150.281,353.751 Q152.101,356.026 156.001,356.026 Q163.411,356.026 168.611,347.056 L168.611,298.827 L187.07,298.827 z" fill="#515E6D"/>
      <path d="M251.529,305.067 L244.509,315.597 Q235.799,310.137 227.349,310.137 Q222.799,310.137 220.329,311.827 Q217.859,313.517 217.859,316.377 Q217.859,318.457 218.964,319.887 Q220.069,321.317 223.124,322.617 Q226.179,323.917 232.289,325.737 Q243.209,328.726 248.539,333.731 Q253.868,338.736 253.868,347.446 Q253.868,354.336 249.904,359.406 Q245.939,364.475 239.179,367.14 Q232.419,369.805 224.099,369.805 Q215.39,369.805 208.24,367.14 Q201.09,364.475 196.02,359.796 L205.12,349.656 Q213.83,356.416 223.579,356.416 Q228.779,356.416 231.834,354.401 Q234.889,352.386 234.889,348.876 Q234.889,346.146 233.719,344.586 Q232.549,343.026 229.429,341.661 Q226.309,340.296 219.679,338.476 Q209.28,335.616 204.275,330.351 Q199.27,325.087 199.27,317.287 Q199.27,311.437 202.65,306.757 Q206.03,302.077 212.205,299.412 Q218.379,296.747 226.569,296.747 Q241.129,296.747 251.529,305.067 z" fill="#515E6D"/>
      <path d="M317.896,306.432 Q326.606,316.117 326.606,333.276 Q326.606,344.196 322.641,352.451 Q318.676,360.705 311.201,365.255 Q303.726,369.805 293.587,369.805 Q278.117,369.805 269.342,360.12 Q260.568,350.436 260.568,333.276 Q260.568,322.357 264.532,314.102 Q268.497,305.847 275.972,301.297 Q283.447,296.747 293.717,296.747 Q309.186,296.747 317.896,306.432 z M283.252,316.052 Q279.807,321.577 279.807,333.276 Q279.807,344.976 283.252,350.501 Q286.697,356.026 293.587,356.026 Q300.476,356.026 303.921,350.501 Q307.366,344.976 307.366,333.276 Q307.366,321.577 303.986,316.052 Q300.606,310.527 293.717,310.527 Q286.697,310.527 283.252,316.052 z" fill="#515E6D"/>
      <path d="M380.623,364.475 Q376.854,367.075 372.109,368.44 Q367.364,369.805 362.684,369.805 Q352.024,369.675 346.564,363.695 Q341.105,357.716 341.105,346.146 L341.105,311.827 L330.835,311.827 L330.835,298.827 L341.105,298.827 L341.105,283.748 L359.564,281.538 L359.564,298.827 L375.424,298.827 L373.604,311.827 L359.564,311.827 L359.564,345.756 Q359.564,350.696 361.254,352.906 Q362.944,355.116 366.454,355.116 Q369.964,355.116 374.254,352.776 z" fill="#515E6D"/>
      <path d="M438.89,306.432 Q447.6,316.117 447.6,333.276 Q447.6,344.196 443.635,352.451 Q439.67,360.705 432.195,365.255 Q424.721,369.805 414.581,369.805 Q399.111,369.805 390.337,360.12 Q381.562,350.436 381.562,333.276 Q381.562,322.357 385.527,314.102 Q389.492,305.847 396.966,301.297 Q404.441,296.747 414.711,296.747 Q430.181,296.747 438.89,306.432 z M404.246,316.052 Q400.801,321.577 400.801,333.276 Q400.801,344.976 404.246,350.501 Q407.691,356.026 414.581,356.026 Q421.471,356.026 424.916,350.501 Q428.361,344.976 428.361,333.276 Q428.361,321.577 424.981,316.052 Q421.601,310.527 414.711,310.527 Q407.691,310.527 404.246,316.052 z" fill="#515E6D"/>
    </g>
    <path d="M314.375,209.152 L312.708,209.06 C312.293,209.037 311.663,208.496 311.422,207.756 C311.337,207.495 311.245,207.233 311.149,206.978 C310.874,206.25 311.027,205.434 311.336,205.157 L312.581,204.044 C314.128,202.658 314.259,200.273 312.874,198.727 L311.012,196.648 C310.339,195.897 309.417,195.454 308.413,195.398 C307.409,195.343 306.443,195.683 305.693,196.355 L304.449,197.469 C304.268,197.631 303.915,197.718 303.527,197.697 C303.212,197.68 302.889,197.594 302.618,197.456 C302.374,197.332 302.125,197.212 301.876,197.099 C301.166,196.779 300.697,196.093 300.72,195.678 L300.811,194.009 C300.925,191.936 299.331,190.157 297.258,190.043 L294.472,189.889 C292.399,189.775 290.62,191.369 290.505,193.443 L290.414,195.111 C290.391,195.526 289.849,196.156 289.109,196.397 C288.85,196.481 288.589,196.573 288.332,196.669 C288.047,196.777 287.716,196.827 287.402,196.81 C287.013,196.788 286.671,196.663 286.509,196.482 L285.395,195.238 C284.724,194.489 283.8,194.045 282.796,193.99 C281.792,193.935 280.826,194.274 280.078,194.947 L278,196.808 C276.454,198.193 276.322,200.578 277.708,202.125 L278.821,203.368 C279.098,203.677 279.161,204.506 278.808,205.2 C278.685,205.444 278.565,205.693 278.452,205.943 C278.132,206.652 277.446,207.121 277.03,207.098 L275.363,207.006 C273.29,206.892 271.51,208.486 271.396,210.559 L271.243,213.346 C271.129,215.419 272.723,217.198 274.796,217.312 L276.463,217.404 C276.879,217.427 277.51,217.968 277.75,218.708 C277.834,218.968 277.926,219.229 278.022,219.484 C278.297,220.213 278.143,221.03 277.834,221.307 L276.591,222.421 C275.044,223.806 274.913,226.192 276.298,227.74 L278.16,229.819 C278.831,230.568 279.753,231.011 280.758,231.066 C281.761,231.122 282.727,230.783 283.476,230.111 L284.721,228.996 C284.904,228.832 285.249,228.746 285.643,228.768 C285.957,228.785 286.28,228.871 286.552,229.009 C286.793,229.132 287.043,229.252 287.295,229.366 C288.005,229.686 288.473,230.372 288.451,230.788 L288.359,232.454 C288.245,234.527 289.839,236.307 291.912,236.421 L294.698,236.574 C296.771,236.688 298.551,235.094 298.665,233.021 L298.756,231.355 C298.779,230.939 299.32,230.309 300.061,230.069 C300.32,229.985 300.582,229.893 300.837,229.796 C301.122,229.689 301.452,229.639 301.767,229.656 C302.156,229.678 302.498,229.803 302.66,229.984 L303.773,231.228 C304.447,231.977 305.37,232.42 306.374,232.475 C306.482,232.481 306.593,232.483 306.701,232.479 C308.081,232.435 309.359,231.285 310.045,230.667 L310.132,230.589 L311.172,229.658 C312.715,228.272 312.847,225.886 311.465,224.34 L310.35,223.096 C310.073,222.786 310.01,221.958 310.363,221.263 C310.488,221.019 310.607,220.77 310.719,220.521 C311.039,219.812 311.725,219.343 312.14,219.366 L313.807,219.458 C315.88,219.572 317.66,217.978 317.774,215.905 L317.927,213.118 C318.042,211.045 316.448,209.266 314.375,209.152 z M304.759,213.792 C304.45,219.401 299.635,223.714 294.026,223.405 C288.416,223.097 284.104,218.282 284.412,212.673 C284.721,207.063 289.536,202.75 295.145,203.059 C300.755,203.367 305.067,208.182 304.759,213.792 z" fill="#F8991C"/>
    <path d="M279.383,166.74 L276.296,166.26 C275.526,166.141 274.452,165.016 274.142,163.592 C274.032,163.091 273.909,162.586 273.777,162.093 C273.399,160.686 273.835,159.194 274.463,158.736 L276.987,156.893 C280.125,154.598 280.811,150.18 278.518,147.043 L275.435,142.826 C274.321,141.303 272.684,140.306 270.825,140.017 C268.965,139.728 267.103,140.182 265.581,141.296 L263.059,143.14 C262.692,143.408 262.017,143.506 261.298,143.394 C260.715,143.304 260.13,143.084 259.65,142.776 C259.219,142.5 258.776,142.231 258.333,141.975 C257.07,141.247 256.323,139.882 256.443,139.113 L256.923,136.022 C257.519,132.182 254.88,128.572 251.04,127.976 L245.878,127.174 C242.037,126.578 238.428,129.217 237.831,133.058 L237.351,136.148 C237.232,136.917 236.107,137.991 234.683,138.302 C234.185,138.41 233.681,138.533 233.185,138.666 C232.635,138.814 232.009,138.845 231.426,138.754 C230.707,138.643 230.093,138.345 229.825,137.979 L227.98,135.456 C226.868,133.935 225.23,132.938 223.37,132.649 C221.509,132.36 219.648,132.814 218.129,133.928 L213.914,137.01 C210.777,139.304 210.091,143.722 212.385,146.859 L214.229,149.381 C214.688,150.009 214.652,151.565 213.866,152.792 C213.59,153.222 213.321,153.665 213.065,154.109 C212.337,155.371 210.973,156.117 210.202,155.997 L207.113,155.518 C203.273,154.921 199.663,157.561 199.067,161.401 L198.265,166.563 C197.669,170.403 200.308,174.013 204.148,174.609 L207.237,175.089 C208.007,175.208 209.082,176.333 209.392,177.757 C209.501,178.256 209.623,178.76 209.755,179.253 C210.133,180.662 209.695,182.155 209.067,182.614 L206.545,184.458 C203.408,186.751 202.722,191.172 205.014,194.311 L208.098,198.528 C209.21,200.048 210.846,201.045 212.706,201.334 C214.565,201.622 216.427,201.17 217.947,200.058 L220.471,198.211 C220.843,197.939 221.501,197.844 222.231,197.957 C222.814,198.048 223.399,198.267 223.88,198.575 C224.306,198.849 224.75,199.119 225.197,199.377 C226.46,200.105 227.207,201.47 227.087,202.239 L226.608,205.327 C226.011,209.167 228.651,212.777 232.491,213.373 L237.653,214.175 C241.493,214.771 245.103,212.132 245.699,208.291 L246.179,205.204 C246.298,204.434 247.423,203.36 248.846,203.05 C249.346,202.942 249.849,202.819 250.343,202.687 C250.894,202.539 251.518,202.508 252.101,202.598 C252.821,202.71 253.435,203.007 253.703,203.375 L255.547,205.897 C256.662,207.418 258.3,208.414 260.16,208.702 C260.361,208.734 260.566,208.756 260.769,208.77 C263.347,208.944 265.94,207.038 267.334,206.014 L267.51,205.885 L269.618,204.344 C272.751,202.047 273.437,197.628 271.149,194.492 L269.304,191.968 C268.845,191.34 268.881,189.785 269.668,188.557 C269.944,188.125 270.213,187.683 270.468,187.241 C271.195,185.979 272.56,185.232 273.329,185.352 L276.417,185.831 C280.257,186.428 283.867,183.788 284.463,179.948 L285.264,174.786 C285.863,170.946 283.223,167.336 279.383,166.74 z M260.612,173.601 C258.998,183.993 249.231,191.135 238.839,189.521 C228.448,187.907 221.306,178.14 222.92,167.748 C224.534,157.357 234.301,150.216 244.692,151.829 C255.084,153.443 262.225,163.21 260.612,173.601 z" fill="#515E6D"/>
    <path d="M183.441,172.47 L182.313,172.108 C182.032,172.017 181.697,171.533 181.665,170.981 C181.653,170.787 181.637,170.591 181.617,170.398 C181.559,169.849 181.81,169.316 182.072,169.182 L183.127,168.641 C184.437,167.967 184.956,166.354 184.282,165.043 L183.378,163.282 C183.051,162.646 182.497,162.176 181.818,161.958 C181.138,161.739 180.414,161.799 179.778,162.126 L178.725,162.667 C178.572,162.746 178.313,162.743 178.051,162.658 C177.838,162.59 177.631,162.473 177.47,162.329 C177.325,162.201 177.175,162.074 177.024,161.952 C176.595,161.604 176.396,161.049 176.486,160.768 L176.849,159.639 C177.299,158.237 176.524,156.729 175.122,156.278 L173.236,155.673 C171.834,155.222 170.326,155.997 169.875,157.4 L169.513,158.528 C169.423,158.809 168.938,159.145 168.386,159.177 C168.193,159.188 167.997,159.204 167.804,159.225 C167.589,159.247 167.353,159.222 167.14,159.154 C166.877,159.069 166.665,158.922 166.586,158.768 L166.045,157.715 C165.718,157.08 165.164,156.609 164.485,156.391 C163.805,156.173 163.081,156.233 162.447,156.56 L160.686,157.465 C159.376,158.138 158.857,159.752 159.531,161.062 L160.072,162.115 C160.207,162.378 160.101,162.958 159.734,163.371 C159.606,163.516 159.478,163.666 159.357,163.817 C159.009,164.246 158.454,164.445 158.173,164.354 L157.045,163.992 C155.642,163.541 154.134,164.316 153.684,165.719 L153.078,167.604 C152.628,169.007 153.402,170.515 154.805,170.965 L155.933,171.328 C156.214,171.418 156.55,171.903 156.582,172.454 C156.593,172.647 156.609,172.843 156.63,173.036 C156.687,173.586 156.435,174.119 156.173,174.253 L155.12,174.795 C153.809,175.468 153.291,177.082 153.963,178.393 L154.868,180.155 C155.195,180.79 155.748,181.26 156.428,181.478 C157.107,181.696 157.831,181.637 158.466,181.31 L159.52,180.768 C159.676,180.688 159.928,180.692 160.194,180.777 C160.407,180.846 160.613,180.962 160.775,181.106 C160.918,181.234 161.069,181.361 161.221,181.485 C161.651,181.832 161.849,182.387 161.759,182.668 L161.397,183.796 C160.947,185.198 161.721,186.706 163.124,187.157 L165.009,187.762 C166.412,188.213 167.92,187.438 168.37,186.035 L168.732,184.908 C168.823,184.627 169.307,184.291 169.858,184.259 C170.052,184.248 170.248,184.232 170.441,184.211 C170.656,184.189 170.891,184.214 171.104,184.282 C171.367,184.367 171.579,184.515 171.658,184.668 L172.199,185.721 C172.527,186.357 173.081,186.827 173.76,187.045 C173.834,187.068 173.909,187.089 173.985,187.106 C174.939,187.324 176.023,186.764 176.606,186.463 L176.679,186.425 L177.56,185.972 C178.869,185.298 179.387,183.684 178.716,182.374 L178.174,181.32 C178.04,181.058 178.145,180.477 178.512,180.064 C178.642,179.919 178.768,179.769 178.89,179.619 C179.237,179.189 179.792,178.99 180.073,179.081 L181.201,179.443 C182.604,179.893 184.111,179.119 184.562,177.716 L185.167,175.831 C185.618,174.428 184.844,172.92 183.441,172.47 z M176.006,173.928 C174.787,177.724 170.708,179.82 166.912,178.601 C163.117,177.382 161.02,173.302 162.24,169.507 C163.459,165.711 167.538,163.615 171.334,164.834 C175.129,166.053 177.225,170.133 176.006,173.928 z" fill="#F8991C"/>
    <path d="M174.676,203.049 L172.955,203.175 C172.526,203.207 171.808,202.735 171.464,202.007 C171.342,201.751 171.213,201.495 171.081,201.245 C170.702,200.535 170.751,199.678 171.032,199.353 L172.161,198.047 C173.565,196.422 173.384,193.958 171.759,192.555 L169.575,190.67 C168.786,189.988 167.781,189.655 166.744,189.732 C165.707,189.808 164.762,190.284 164.081,191.072 L162.953,192.379 C162.789,192.569 162.438,192.705 162.037,192.735 C161.712,192.759 161.37,192.713 161.073,192.607 C160.807,192.513 160.535,192.423 160.265,192.34 C159.494,192.105 158.922,191.464 158.891,191.035 L158.765,189.312 C158.607,187.171 156.738,185.556 154.597,185.713 L151.718,185.924 C149.577,186.081 147.963,187.951 148.12,190.092 L148.247,191.815 C148.278,192.244 147.806,192.962 147.078,193.307 C146.824,193.427 146.568,193.556 146.318,193.689 C146.04,193.837 145.707,193.932 145.382,193.956 C144.981,193.985 144.613,193.901 144.423,193.737 L143.116,192.61 C142.329,191.929 141.323,191.596 140.286,191.672 C139.249,191.749 138.303,192.225 137.624,193.013 L135.74,195.197 C134.337,196.822 134.517,199.285 136.142,200.688 L137.449,201.816 C137.774,202.097 137.948,202.938 137.678,203.697 C137.583,203.963 137.493,204.234 137.411,204.505 C137.176,205.275 136.535,205.846 136.105,205.878 L134.383,206.004 C132.241,206.161 130.627,208.031 130.784,210.172 L130.995,213.05 C131.152,215.191 133.022,216.806 135.163,216.649 L136.885,216.522 C137.315,216.491 138.033,216.963 138.377,217.69 C138.498,217.945 138.627,218.201 138.759,218.45 C139.137,219.161 139.088,220.019 138.807,220.345 L137.679,221.651 C136.276,223.276 136.457,225.74 138.081,227.144 L140.266,229.031 C141.054,229.71 142.058,230.043 143.095,229.967 C144.132,229.891 145.077,229.416 145.757,228.628 L146.886,227.32 C147.052,227.127 147.395,226.994 147.802,226.964 C148.127,226.94 148.469,226.985 148.766,227.091 C149.029,227.186 149.302,227.276 149.575,227.359 C150.345,227.594 150.917,228.235 150.948,228.664 L151.074,230.386 C151.231,232.527 153.101,234.141 155.242,233.984 L158.121,233.773 C160.262,233.616 161.876,231.747 161.719,229.605 L161.593,227.884 C161.561,227.455 162.033,226.737 162.76,226.393 C163.016,226.272 163.271,226.143 163.521,226.011 C163.799,225.863 164.131,225.768 164.456,225.744 C164.857,225.715 165.225,225.798 165.415,225.963 L166.721,227.091 C167.511,227.77 168.516,228.103 169.553,228.027 C169.665,228.018 169.778,228.005 169.889,227.987 C171.298,227.76 172.457,226.411 173.08,225.687 L173.158,225.595 L174.101,224.503 C175.501,222.877 175.321,220.414 173.699,219.01 L172.392,217.882 C172.067,217.601 171.892,216.759 172.163,216 C172.258,215.734 172.348,215.462 172.43,215.193 C172.664,214.423 173.306,213.851 173.735,213.82 L175.456,213.693 C177.597,213.536 179.211,211.667 179.054,209.525 L178.843,206.648 C178.687,204.506 176.817,202.892 174.676,203.049 z M165.427,209.078 C165.852,214.872 161.484,219.932 155.69,220.356 C149.897,220.781 144.837,216.413 144.412,210.62 C143.988,204.826 148.356,199.767 154.149,199.342 C159.943,198.917 165.002,203.285 165.427,209.078 z" fill="#F8991C"/>
    <path d="M200.44,178.027 L199.822,178.074 C199.668,178.086 199.41,177.917 199.286,177.656 C199.242,177.564 199.195,177.472 199.147,177.383 C199.011,177.128 199.028,176.82 199.129,176.704 L199.533,176.234 C200.036,175.649 199.969,174.765 199.385,174.263 L198.599,173.588 C198.316,173.344 197.955,173.225 197.582,173.253 C197.21,173.281 196.871,173.453 196.628,173.736 L196.224,174.206 C196.165,174.275 196.039,174.324 195.895,174.335 C195.778,174.343 195.656,174.327 195.549,174.29 C195.453,174.256 195.356,174.224 195.259,174.194 C194.982,174.111 194.776,173.881 194.765,173.727 L194.718,173.108 C194.66,172.34 193.988,171.762 193.219,171.82 L192.186,171.898 C191.418,171.956 190.84,172.628 190.898,173.396 L190.945,174.015 C190.956,174.169 190.787,174.427 190.526,174.551 C190.435,174.594 190.343,174.641 190.254,174.689 C190.154,174.742 190.035,174.776 189.918,174.785 C189.774,174.796 189.642,174.766 189.574,174.708 L189.104,174.304 C188.82,174.06 188.459,173.941 188.087,173.969 C187.715,173.997 187.376,174.169 187.133,174.453 L186.458,175.238 C185.955,175.822 186.022,176.706 186.606,177.208 L187.076,177.612 C187.193,177.713 187.256,178.015 187.16,178.287 C187.126,178.383 187.094,178.48 187.064,178.578 C186.981,178.854 186.751,179.06 186.597,179.071 L185.979,179.118 C185.21,179.176 184.632,179.848 184.69,180.617 L184.768,181.65 C184.826,182.418 185.498,182.996 186.267,182.938 L186.885,182.891 C187.039,182.88 187.297,183.049 187.421,183.309 C187.465,183.401 187.511,183.493 187.559,183.582 C187.695,183.837 187.678,184.145 187.577,184.262 L187.173,184.732 C186.671,185.316 186.738,186.201 187.322,186.703 L188.107,187.379 C188.391,187.622 188.751,187.741 189.124,187.713 C189.496,187.685 189.835,187.513 190.078,187.23 L190.482,186.76 C190.542,186.69 190.665,186.642 190.811,186.631 C190.927,186.623 191.05,186.639 191.157,186.676 C191.252,186.71 191.349,186.742 191.448,186.772 C191.724,186.856 191.93,187.085 191.941,187.239 L191.988,187.857 C192.046,188.626 192.718,189.204 193.487,189.146 L194.52,189.068 C195.288,189.01 195.866,188.338 195.808,187.569 L195.762,186.951 C195.75,186.797 195.919,186.539 196.18,186.415 C196.271,186.372 196.363,186.325 196.452,186.278 C196.552,186.224 196.671,186.19 196.788,186.181 C196.932,186.17 197.064,186.2 197.132,186.259 L197.602,186.663 C197.886,186.906 198.247,187.025 198.619,186.997 C198.659,186.994 198.7,186.989 198.74,186.982 C199.245,186.9 199.66,186.415 199.883,186.154 L199.911,186.121 L200.249,185.729 C200.75,185.144 200.684,184.26 200.1,183.757 L199.63,183.353 C199.514,183.253 199.45,182.951 199.547,182.678 C199.581,182.582 199.613,182.485 199.642,182.388 C199.726,182.111 199.956,181.906 200.109,181.894 L200.727,181.848 C201.496,181.79 202.074,181.117 202.016,180.349 L201.938,179.316 C201.88,178.548 201.208,177.97 200.44,178.027 z M197.124,180.198 C197.281,182.278 195.717,184.097 193.637,184.254 C191.558,184.411 189.739,182.847 189.582,180.767 C189.425,178.688 190.99,176.869 193.069,176.712 C195.148,176.555 196.967,178.119 197.124,180.198 z" fill="#F8991C"/>
    <path d="M240.811,101.98 C271.467,102.113 299.866,122.526 307.768,152.531 C309.287,158.297 309.247,160.061 309.86,166.006 C331.136,172.153 344.849,191.781 345.355,213.566 C345.288,238.979 325.58,260.791 300.174,262.916 C299.266,263.101 299.772,263.03 298.651,263.086 L147.551,263.086 C146.039,263.127 144.934,262.701 143.584,262.131 C118.209,256.717 101.438,235.799 100.847,209.986 C100.997,190.634 111.892,170.994 129.777,162.578 C133.32,144.097 148.885,131.102 167.622,130.632 C172.619,130.691 177.689,131.537 182.28,133.574 C194.901,113.526 217.474,102.4 240.811,101.98 z M240.811,119.849 C220.239,119.849 201.946,131.661 193.834,149.516 C193.391,150.374 193.594,150.081 193.323,150.454 C193.117,150.865 193.283,150.551 192.725,151.34 L192.456,151.649 C192.346,151.801 192.406,151.735 192.282,151.849 C191.985,152.19 192.186,151.978 191.638,152.443 C191.042,152.992 191.302,152.817 190.921,153.051 C190.597,153.326 190.827,153.149 190.178,153.507 C189.569,153.881 189.828,153.77 189.438,153.917 C189.053,154.129 189.316,154 188.615,154.225 C187.956,154.473 188.23,154.413 187.813,154.483 C187.409,154.613 187.681,154.54 186.98,154.624 C186.256,154.746 186.548,154.74 186.11,154.728 C185.694,154.778 185.976,154.757 185.262,154.706 C184.523,154.686 184.808,154.738 184.395,154.643 C183.947,154.611 184.259,154.646 183.476,154.433 C182.777,154.272 183.053,154.368 182.633,154.203 C182.47,154.158 182.553,154.189 182.385,154.105 L182.004,153.954 C181.146,153.511 181.438,153.714 181.066,153.443 C180.654,153.237 180.969,153.404 180.18,152.846 C176.606,150.038 172.247,148.501 167.622,148.501 C156.483,148.501 147.342,157.523 147.058,168.848 C146.967,172.478 144.689,175.692 141.293,176.979 C127.842,182.079 118.716,195.158 118.716,209.986 C118.716,227.69 131.666,242.56 148.759,244.893 C149.757,245.076 149.313,244.956 150.102,245.217 L297.605,245.217 L298.126,245.161 C314.546,244.194 327.486,230.373 327.486,213.566 C327.486,197.41 315.503,183.92 299.861,182.119 C295.128,181.574 291.655,177.411 291.967,172.657 C292.041,171.537 292.079,170.448 292.079,169.4 C292.079,142.092 269.182,119.849 240.811,119.849 z" fill="#8B8B8B" fill-opacity="0.3"/>
  </g>
</svg>
