<?xml version="1.0" encoding="UTF-8"?>
<!DOCTYPE svg PUBLIC "-//W3C//DTD SVG 1.1//EN" "http://www.w3.org/Graphics/SVG/1.1/DTD/svg11.dtd">
<svg version="1.1" xmlns="http://www.w3.org/2000/svg" xmlns:xlink="http://www.w3.org/1999/xlink" x="0" y="0" width="900" height="300" viewBox="0, 0, 900, 300">
  <g id="Layer_1">
    <g>
      <path d="M92.996,160.302 L80.009,160.302 L80.009,207.227 L54.556,207.227 L54.556,87.404 L91.957,87.404 Q116.025,87.404 128.146,96.321 Q140.267,105.239 140.267,123.247 Q140.267,135.021 134.466,142.64 Q128.666,150.259 116.545,155.626 L147.539,207.227 L118.623,207.227 z M80.009,142.294 L93.342,142.294 Q103.558,142.294 108.753,137.705 Q113.947,133.116 113.947,123.247 Q113.947,114.069 108.493,109.827 Q103.039,105.585 91.437,105.585 L80.009,105.585 z" fill="#515E6D"/>
      <path d="M233.863,207.227 L212.565,207.227 L211.353,194.933 Q206.504,202.551 199.578,206.274 Q192.652,209.997 183.475,209.997 Q171.008,209.997 164.428,202.465 Q157.848,194.933 157.848,181.427 L157.848,115.455 L182.436,115.455 L182.436,178.31 Q182.436,185.582 184.86,188.612 Q187.284,191.643 192.479,191.643 Q202.349,191.643 209.275,179.695 L209.275,115.455 L233.863,115.455 z" fill="#515E6D"/>
      <path d="M319.721,123.766 L310.37,137.792 Q298.769,130.519 287.514,130.519 Q281.454,130.519 278.164,132.77 Q274.874,135.021 274.874,138.831 Q274.874,141.601 276.346,143.506 Q277.817,145.41 281.887,147.142 Q285.956,148.874 294.094,151.298 Q308.639,155.28 315.738,161.947 Q322.838,168.613 322.838,180.214 Q322.838,189.392 317.556,196.145 Q312.275,202.898 303.271,206.447 Q294.267,209.997 283.185,209.997 Q271.584,209.997 262.06,206.447 Q252.537,202.898 245.784,196.664 L257.905,183.158 Q269.506,192.162 282.493,192.162 Q289.419,192.162 293.488,189.478 Q297.557,186.794 297.557,182.119 Q297.557,178.483 295.999,176.405 Q294.44,174.327 290.285,172.509 Q286.129,170.691 277.298,168.267 Q263.446,164.457 256.779,157.445 Q250.113,150.432 250.113,140.043 Q250.113,132.251 254.615,126.017 Q259.117,119.784 267.342,116.234 Q275.566,112.684 286.475,112.684 Q305.868,112.684 319.721,123.766 z" fill="#515E6D"/>
      <path d="M408.122,125.584 Q419.723,138.484 419.723,161.341 Q419.723,175.886 414.442,186.881 Q409.161,197.876 399.204,203.937 Q389.248,209.997 375.742,209.997 Q355.137,209.997 343.449,197.097 Q331.761,184.197 331.761,161.341 Q331.761,146.796 337.042,135.8 Q342.323,124.805 352.28,118.745 Q362.236,112.684 375.915,112.684 Q396.521,112.684 408.122,125.584 z M361.976,138.398 Q357.388,145.757 357.388,161.341 Q357.388,176.925 361.976,184.284 Q366.565,191.643 375.742,191.643 Q384.919,191.643 389.508,184.284 Q394.096,176.925 394.096,161.341 Q394.096,145.757 389.594,138.398 Q385.092,131.039 375.915,131.039 Q366.565,131.039 361.976,138.398 z" fill="#515E6D"/>
      <path d="M491.675,202.898 Q486.653,206.361 480.333,208.179 Q474.013,209.997 467.779,209.997 Q453.581,209.824 446.308,201.859 Q439.036,193.894 439.036,178.483 L439.036,132.77 L425.357,132.77 L425.357,115.455 L439.036,115.455 L439.036,95.369 L463.624,92.425 L463.624,115.455 L484.749,115.455 L482.324,132.77 L463.624,132.77 L463.624,177.963 Q463.624,184.543 465.875,187.487 Q468.126,190.431 472.801,190.431 Q477.476,190.431 483.19,187.314 z" fill="#515E6D"/>
      <path d="M569.286,125.584 Q580.887,138.484 580.887,161.341 Q580.887,175.886 575.606,186.881 Q570.325,197.876 560.369,203.937 Q550.412,209.997 536.906,209.997 Q516.301,209.997 504.613,197.097 Q492.925,184.197 492.925,161.341 Q492.925,146.796 498.206,135.8 Q503.487,124.805 513.444,118.745 Q523.4,112.684 537.079,112.684 Q557.685,112.684 569.286,125.584 z M523.14,138.398 Q518.552,145.757 518.552,161.341 Q518.552,176.925 523.14,184.284 Q527.729,191.643 536.906,191.643 Q546.083,191.643 550.672,184.284 Q555.26,176.925 555.26,161.341 Q555.26,145.757 550.758,138.398 Q546.256,131.039 537.079,131.039 Q527.729,131.039 523.14,138.398 z" fill="#515E6D"/>
    </g>
    <path d="M752.978,75.4 C779.803,75.516 804.652,93.378 811.567,119.634 C812.896,124.679 812.861,126.223 813.398,131.425 C832.015,136.803 844.014,153.978 844.457,173.041 C844.398,195.278 827.153,214.364 804.922,216.223 C804.128,216.385 804.57,216.323 803.59,216.372 L671.373,216.372 C670.05,216.409 669.083,216.036 667.902,215.537 C645.698,210.799 631.022,192.496 630.506,169.908 C630.637,152.975 640.171,135.789 655.82,128.425 C658.921,112.254 672.54,100.883 688.936,100.472 C693.308,100.523 697.745,101.263 701.762,103.046 C712.806,85.503 732.557,75.768 752.978,75.4 z M752.978,91.036 C734.977,91.036 718.97,101.372 711.872,116.995 C711.484,117.747 711.661,117.49 711.425,117.817 C711.244,118.176 711.39,117.901 710.902,118.591 L710.666,118.862 C710.57,118.995 710.622,118.937 710.514,119.037 C710.254,119.335 710.429,119.15 709.95,119.557 C709.429,120.037 709.657,119.884 709.323,120.089 C709.039,120.33 709.24,120.174 708.673,120.488 C708.14,120.815 708.367,120.718 708.025,120.846 C707.688,121.032 707.918,120.919 707.305,121.116 C706.728,121.333 706.969,121.28 706.603,121.342 C706.249,121.456 706.487,121.392 705.874,121.465 C705.241,121.572 705.496,121.567 705.113,121.557 C704.75,121.6 704.996,121.582 704.371,121.537 C703.724,121.519 703.974,121.565 703.612,121.482 C703.221,121.454 703.494,121.485 702.808,121.298 C702.197,121.158 702.438,121.241 702.071,121.097 C701.928,121.058 702.001,121.085 701.854,121.011 L701.52,120.879 C700.769,120.491 701.025,120.669 700.699,120.432 C700.339,120.252 700.615,120.397 699.924,119.909 C696.797,117.452 692.983,116.108 688.936,116.108 C679.189,116.108 671.19,124.002 670.942,133.912 C670.862,137.088 668.868,139.9 665.897,141.027 C654.127,145.489 646.142,156.933 646.142,169.908 C646.142,185.4 657.474,198.411 672.43,200.453 C673.303,200.613 672.915,200.508 673.605,200.736 L802.675,200.736 L803.13,200.687 C817.498,199.841 828.821,187.747 828.821,173.041 C828.821,158.904 818.335,147.1 804.648,145.524 C800.507,145.047 797.468,141.405 797.741,137.245 C797.805,136.265 797.839,135.312 797.839,134.395 C797.839,110.499 777.803,91.036 752.978,91.036 z" fill="#8B8B8B" fill-opacity="0.3"/>
    <path d="M816.75,166.659 L815.293,166.766 C814.93,166.793 814.323,166.394 814.031,165.778 C813.929,165.561 813.819,165.344 813.707,165.133 C813.387,164.532 813.429,163.807 813.666,163.532 L814.622,162.427 C815.809,161.051 815.656,158.967 814.281,157.78 L812.433,156.184 C811.765,155.607 810.915,155.326 810.038,155.39 C809.16,155.454 808.36,155.857 807.784,156.525 L806.83,157.63 C806.691,157.791 806.394,157.907 806.054,157.931 C805.779,157.952 805.49,157.913 805.239,157.824 C805.013,157.743 804.783,157.667 804.555,157.597 C803.903,157.399 803.419,156.856 803.392,156.493 L803.285,155.035 C803.152,153.223 801.57,151.857 799.758,151.99 L797.323,152.168 C795.511,152.301 794.145,153.883 794.278,155.695 L794.385,157.153 C794.412,157.516 794.012,158.124 793.396,158.415 C793.181,158.517 792.964,158.626 792.753,158.739 C792.518,158.864 792.236,158.944 791.961,158.965 C791.622,158.989 791.311,158.919 791.15,158.78 L790.044,157.825 C789.377,157.25 788.526,156.968 787.649,157.033 C786.771,157.097 785.971,157.5 785.396,158.167 L783.802,160.015 C782.614,161.39 782.767,163.474 784.142,164.661 L785.248,165.616 C785.523,165.853 785.67,166.566 785.442,167.207 C785.361,167.432 785.285,167.662 785.216,167.891 C785.017,168.543 784.474,169.026 784.111,169.053 L782.653,169.16 C780.841,169.293 779.475,170.875 779.608,172.687 L779.787,175.122 C779.92,176.934 781.502,178.3 783.314,178.167 L784.771,178.06 C785.134,178.034 785.742,178.433 786.034,179.049 C786.136,179.265 786.245,179.481 786.357,179.692 C786.677,180.294 786.635,181.02 786.397,181.295 L785.443,182.4 C784.256,183.775 784.409,185.861 785.783,187.049 L787.632,188.645 C788.298,189.22 789.148,189.502 790.026,189.437 C790.903,189.373 791.703,188.971 792.279,188.304 L793.234,187.197 C793.375,187.034 793.664,186.922 794.008,186.896 C794.283,186.876 794.573,186.914 794.824,187.004 C795.047,187.084 795.278,187.16 795.509,187.231 C796.161,187.429 796.645,187.972 796.671,188.335 L796.778,189.792 C796.911,191.604 798.493,192.97 800.305,192.837 L802.74,192.658 C804.552,192.525 805.918,190.943 805.785,189.131 L805.678,187.675 C805.652,187.312 806.051,186.704 806.666,186.413 C806.883,186.311 807.099,186.202 807.31,186.09 C807.545,185.964 807.826,185.884 808.101,185.864 C808.441,185.839 808.752,185.91 808.913,186.049 L810.018,187.003 C810.686,187.579 811.537,187.86 812.414,187.795 C812.509,187.789 812.605,187.777 812.699,187.762 C813.891,187.57 814.872,186.429 815.399,185.816 L815.465,185.738 L816.263,184.814 C817.448,183.438 817.295,181.353 815.923,180.166 L814.817,179.211 C814.542,178.973 814.394,178.261 814.623,177.619 C814.704,177.393 814.779,177.163 814.849,176.935 C815.047,176.284 815.59,175.8 815.953,175.774 L817.41,175.667 C819.222,175.534 820.588,173.952 820.455,172.14 L820.276,169.704 C820.144,167.892 818.562,166.526 816.75,166.659 z M808.923,171.761 C809.283,176.664 805.587,180.945 800.684,181.305 C795.781,181.664 791.5,177.968 791.141,173.066 C790.781,168.163 794.477,163.882 799.38,163.522 C804.283,163.163 808.564,166.859 808.923,171.761 z" fill="#F8991C"/>
    <path d="M786.729,132.12 L784.028,131.701 C783.355,131.596 782.415,130.612 782.143,129.366 C782.047,128.927 781.94,128.486 781.824,128.054 C781.493,126.823 781.875,125.517 782.424,125.116 L784.633,123.504 C787.379,121.496 787.979,117.63 785.972,114.885 L783.275,111.195 C782.3,109.862 780.868,108.99 779.241,108.737 C777.614,108.484 775.984,108.882 774.652,109.856 L772.445,111.47 C772.124,111.704 771.534,111.79 770.904,111.692 C770.394,111.613 769.882,111.421 769.462,111.151 C769.085,110.91 768.698,110.674 768.31,110.45 C767.205,109.813 766.552,108.619 766.656,107.945 L767.076,105.241 C767.598,101.881 765.288,98.722 761.928,98.2 L757.411,97.499 C754.051,96.977 750.892,99.287 750.371,102.647 L749.951,105.351 C749.846,106.024 748.861,106.964 747.616,107.236 C747.18,107.331 746.739,107.438 746.305,107.555 C745.823,107.684 745.276,107.711 744.766,107.632 C744.137,107.534 743.599,107.274 743.365,106.953 L741.75,104.746 C740.777,103.415 739.344,102.543 737.716,102.29 C736.089,102.037 734.46,102.434 733.13,103.409 L729.443,106.106 C726.698,108.113 726.097,111.979 728.104,114.724 L729.718,116.931 C730.12,117.48 730.088,118.841 729.4,119.915 C729.159,120.292 728.923,120.679 728.7,121.068 C728.063,122.172 726.869,122.825 726.195,122.72 L723.491,122.3 C720.131,121.778 716.973,124.088 716.451,127.449 L715.749,131.965 C715.228,135.326 717.537,138.484 720.897,139.006 L723.6,139.426 C724.274,139.53 725.214,140.515 725.486,141.76 C725.581,142.197 725.688,142.638 725.803,143.07 C726.134,144.302 725.751,145.608 725.201,146.01 L722.995,147.624 C720.25,149.63 719.649,153.499 721.655,156.245 L724.353,159.936 C725.326,161.266 726.757,162.138 728.385,162.39 C730.012,162.643 731.641,162.247 732.971,161.274 L735.18,159.658 C735.506,159.42 736.082,159.337 736.72,159.436 C737.23,159.515 737.742,159.707 738.163,159.977 C738.536,160.216 738.924,160.453 739.316,160.679 C740.421,161.316 741.074,162.51 740.969,163.183 L740.55,165.884 C740.028,169.245 742.337,172.404 745.698,172.926 L750.214,173.627 C753.575,174.149 756.733,171.839 757.255,168.479 L757.675,165.777 C757.779,165.104 758.763,164.164 760.009,163.893 C760.446,163.798 760.887,163.69 761.319,163.574 C761.801,163.445 762.347,163.418 762.857,163.497 C763.487,163.595 764.024,163.855 764.259,164.176 L765.872,166.383 C766.848,167.714 768.281,168.586 769.908,168.838 C770.085,168.866 770.264,168.885 770.442,168.897 C772.697,169.05 774.967,167.382 776.186,166.486 L776.34,166.373 L778.185,165.024 C780.926,163.015 781.526,159.148 779.525,156.404 L777.91,154.195 C777.508,153.646 777.54,152.285 778.228,151.21 C778.47,150.833 778.706,150.446 778.928,150.059 C779.565,148.955 780.759,148.302 781.432,148.406 L784.134,148.826 C787.495,149.347 790.653,147.038 791.175,143.677 L791.876,139.161 C792.399,135.801 790.09,132.642 786.729,132.12 z M770.304,138.124 C768.892,147.217 760.346,153.466 751.253,152.054 C742.16,150.642 735.911,142.096 737.323,133.003 C738.735,123.91 747.281,117.661 756.374,119.073 C765.467,120.485 771.716,129.031 770.304,138.124 z" fill="#515E6D"/>
    <path d="M701.362,133.018 L700.328,133.094 C700.07,133.113 699.639,132.829 699.432,132.393 C699.36,132.239 699.282,132.085 699.202,131.935 C698.975,131.509 699.005,130.994 699.173,130.799 L699.852,130.015 C700.694,129.039 700.586,127.559 699.61,126.717 L698.298,125.585 C697.825,125.176 697.221,124.976 696.599,125.021 C695.976,125.067 695.408,125.353 694.999,125.827 L694.322,126.611 C694.224,126.725 694.013,126.807 693.772,126.825 C693.577,126.839 693.371,126.812 693.193,126.748 C693.033,126.691 692.87,126.637 692.708,126.588 C692.245,126.447 691.902,126.061 691.883,125.804 L691.807,124.769 C691.713,123.484 690.59,122.514 689.305,122.608 L687.576,122.735 C686.291,122.83 685.321,123.952 685.416,125.238 L685.492,126.273 C685.51,126.53 685.227,126.961 684.79,127.168 C684.637,127.241 684.484,127.318 684.333,127.398 C684.166,127.487 683.967,127.544 683.771,127.558 C683.531,127.575 683.31,127.525 683.196,127.427 L682.411,126.75 C681.938,126.341 681.334,126.141 680.712,126.187 C680.089,126.233 679.521,126.518 679.113,126.992 L677.982,128.303 C677.139,129.279 677.248,130.758 678.223,131.6 L679.008,132.278 C679.203,132.446 679.308,132.951 679.145,133.407 C679.089,133.567 679.035,133.73 678.985,133.892 C678.844,134.354 678.459,134.698 678.201,134.717 L677.167,134.792 C675.881,134.887 674.912,136.009 675.006,137.295 L675.133,139.023 C675.227,140.309 676.35,141.278 677.636,141.184 L678.67,141.108 C678.927,141.089 679.359,141.372 679.565,141.809 C679.638,141.963 679.715,142.116 679.795,142.266 C680.022,142.693 679.992,143.208 679.824,143.403 L679.146,144.188 C678.304,145.163 678.412,146.643 679.388,147.486 L680.7,148.619 C681.172,149.027 681.776,149.227 682.398,149.181 C683.021,149.135 683.589,148.85 683.997,148.377 L684.675,147.592 C684.775,147.476 684.98,147.396 685.224,147.378 C685.42,147.364 685.625,147.391 685.803,147.454 C685.962,147.511 686.125,147.565 686.289,147.615 C686.752,147.756 687.095,148.141 687.114,148.399 L687.19,149.433 C687.284,150.718 688.407,151.688 689.692,151.593 L691.421,151.467 C692.706,151.372 693.675,150.25 693.581,148.964 L693.505,147.93 C693.486,147.673 693.77,147.242 694.206,147.035 C694.36,146.962 694.513,146.885 694.663,146.806 C694.83,146.717 695.029,146.66 695.225,146.646 C695.466,146.628 695.686,146.678 695.8,146.777 L696.585,147.454 C697.059,147.862 697.663,148.062 698.285,148.016 C698.353,148.011 698.421,148.003 698.487,147.992 C699.333,147.856 700.029,147.046 700.403,146.611 L700.45,146.556 L701.016,145.9 C701.857,144.924 701.748,143.445 700.775,142.602 L699.99,141.924 C699.795,141.756 699.69,141.25 699.852,140.795 C699.909,140.635 699.963,140.472 700.013,140.31 C700.153,139.847 700.539,139.504 700.796,139.485 L701.83,139.41 C703.116,139.315 704.085,138.193 703.99,136.907 L703.864,135.179 C703.77,133.893 702.647,132.924 701.362,133.018 z M695.808,136.638 C696.063,140.117 693.44,143.155 689.961,143.41 C686.482,143.666 683.445,141.043 683.189,137.564 C682.934,134.085 685.557,131.047 689.036,130.792 C692.515,130.537 695.553,133.159 695.808,136.638 z" fill="#F8991C"/>
    <path d="M695.108,163.892 L693.602,164.002 C693.227,164.03 692.599,163.617 692.297,162.98 C692.191,162.756 692.078,162.532 691.962,162.313 C691.631,161.692 691.674,160.942 691.92,160.658 L692.908,159.515 C694.136,158.092 693.977,155.937 692.556,154.709 L690.644,153.059 C689.954,152.463 689.075,152.172 688.167,152.238 C687.26,152.305 686.433,152.722 685.837,153.412 L684.85,154.555 C684.706,154.721 684.399,154.841 684.048,154.866 C683.764,154.887 683.465,154.848 683.205,154.755 C682.972,154.672 682.734,154.593 682.498,154.521 C681.824,154.316 681.323,153.754 681.296,153.379 L681.185,151.871 C681.048,149.998 679.411,148.585 677.538,148.722 L675.02,148.907 C673.146,149.044 671.734,150.68 671.871,152.554 L671.982,154.062 C672.009,154.437 671.596,155.065 670.959,155.367 C670.737,155.472 670.513,155.585 670.294,155.701 C670.051,155.831 669.759,155.914 669.475,155.935 C669.124,155.96 668.803,155.887 668.636,155.744 L667.493,154.757 C666.803,154.162 665.924,153.87 665.016,153.937 C664.108,154.003 663.281,154.42 662.687,155.11 L661.038,157.021 C659.81,158.442 659.968,160.598 661.39,161.826 L662.533,162.812 C662.818,163.058 662.97,163.795 662.734,164.458 C662.651,164.691 662.572,164.929 662.5,165.166 C662.295,165.839 661.733,166.339 661.357,166.367 L659.85,166.477 C657.977,166.615 656.564,168.251 656.702,170.125 L656.886,172.643 C657.024,174.516 658.66,175.929 660.533,175.792 L662.04,175.681 C662.416,175.653 663.045,176.066 663.346,176.703 C663.451,176.926 663.564,177.15 663.68,177.368 C664.011,177.99 663.968,178.741 663.722,179.026 L662.735,180.169 C661.507,181.59 661.665,183.747 663.087,184.976 L664.998,186.626 C665.688,187.221 666.567,187.512 667.474,187.445 C668.381,187.379 669.209,186.963 669.804,186.274 L670.791,185.129 C670.937,184.96 671.236,184.844 671.592,184.818 C671.877,184.797 672.176,184.837 672.436,184.929 C672.667,185.012 672.905,185.091 673.144,185.164 C673.818,185.369 674.318,185.93 674.346,186.306 L674.456,187.812 C674.594,189.685 676.23,191.098 678.103,190.961 L680.622,190.776 C682.495,190.639 683.908,189.003 683.77,187.129 L683.66,185.623 C683.632,185.247 684.045,184.619 684.681,184.318 C684.905,184.212 685.129,184.1 685.347,183.984 C685.59,183.854 685.881,183.771 686.165,183.751 C686.516,183.725 686.838,183.798 687.004,183.942 L688.147,184.929 C688.838,185.523 689.718,185.814 690.625,185.748 C690.723,185.74 690.822,185.729 690.92,185.713 C692.152,185.514 693.166,184.334 693.711,183.7 L693.78,183.62 L694.605,182.665 C695.83,181.242 695.672,179.086 694.253,177.858 L693.109,176.87 C692.825,176.625 692.672,175.888 692.909,175.224 C692.992,174.991 693.071,174.753 693.143,174.517 C693.348,173.844 693.909,173.344 694.284,173.316 L695.791,173.206 C697.664,173.068 699.077,171.432 698.939,169.558 L698.755,167.04 C698.618,165.167 696.982,163.754 695.108,163.892 z M687.015,169.167 C687.387,174.237 683.565,178.664 678.495,179.036 C673.425,179.408 668.999,175.586 668.627,170.516 C668.255,165.446 672.077,161.019 677.147,160.648 C682.216,160.276 686.643,164.098 687.015,169.167 z" fill="#F8991C"/>
    <path d="M718.013,144.246 L717.491,144.1 C717.361,144.063 717.199,143.847 717.175,143.596 C717.166,143.507 717.156,143.417 717.143,143.33 C717.107,143.079 717.213,142.832 717.331,142.766 L717.804,142.5 C718.392,142.17 718.602,141.423 718.271,140.835 L717.827,140.045 C717.667,139.76 717.406,139.554 717.091,139.466 C716.777,139.377 716.447,139.417 716.162,139.577 L715.689,139.843 C715.62,139.882 715.502,139.884 715.38,139.85 C715.282,139.823 715.186,139.773 715.109,139.71 C715.041,139.653 714.97,139.598 714.899,139.544 C714.697,139.393 714.596,139.142 714.633,139.012 L714.779,138.49 C714.961,137.841 714.581,137.164 713.932,136.982 L713.06,136.737 C712.41,136.555 711.734,136.935 711.552,137.584 L711.405,138.106 C711.369,138.236 711.153,138.398 710.901,138.422 C710.813,138.431 710.723,138.441 710.635,138.454 C710.537,138.468 710.429,138.46 710.33,138.433 C710.209,138.399 710.109,138.335 710.071,138.266 L709.805,137.793 C709.645,137.508 709.383,137.303 709.069,137.214 C708.754,137.126 708.424,137.166 708.14,137.326 L707.35,137.77 C706.762,138.1 706.552,138.847 706.883,139.435 L707.148,139.908 C707.214,140.025 707.176,140.292 707.015,140.488 C706.958,140.556 706.903,140.627 706.85,140.698 C706.698,140.9 706.448,141 706.317,140.964 L705.795,140.817 C705.146,140.635 704.47,141.015 704.287,141.664 L704.042,142.537 C703.86,143.186 704.24,143.863 704.889,144.045 L705.412,144.191 C705.542,144.228 705.704,144.444 705.728,144.696 C705.736,144.784 705.747,144.873 705.759,144.961 C705.795,145.211 705.689,145.46 705.571,145.526 L705.098,145.791 C704.511,146.121 704.301,146.869 704.631,147.457 L705.075,148.247 C705.235,148.532 705.496,148.737 705.81,148.826 C706.125,148.914 706.455,148.874 706.74,148.714 L707.213,148.449 C707.283,148.409 707.398,148.407 707.521,148.441 C707.62,148.469 707.716,148.519 707.792,148.582 C707.86,148.638 707.931,148.693 708.003,148.747 C708.205,148.899 708.306,149.149 708.269,149.279 L708.123,149.801 C707.94,150.45 708.32,151.127 708.97,151.309 L709.842,151.554 C710.492,151.736 711.168,151.356 711.35,150.707 L711.497,150.185 C711.533,150.055 711.749,149.893 712.001,149.869 C712.089,149.861 712.178,149.85 712.266,149.838 C712.364,149.824 712.472,149.831 712.571,149.859 C712.693,149.893 712.792,149.957 712.831,150.026 L713.096,150.498 C713.257,150.783 713.518,150.989 713.833,151.077 C713.867,151.087 713.902,151.095 713.936,151.101 C714.377,151.185 714.863,150.91 715.124,150.763 L715.157,150.744 L715.552,150.522 C716.139,150.191 716.349,149.444 716.02,148.857 L715.754,148.384 C715.688,148.266 715.727,147.999 715.888,147.804 C715.944,147.735 716,147.664 716.053,147.593 C716.204,147.391 716.455,147.291 716.585,147.327 L717.107,147.474 C717.756,147.656 718.432,147.276 718.615,146.627 L718.859,145.754 C719.042,145.105 718.662,144.428 718.013,144.246 z M714.637,145.04 C714.144,146.797 712.314,147.825 710.557,147.332 C708.8,146.839 707.772,145.008 708.265,143.251 C708.758,141.495 710.588,140.467 712.345,140.96 C714.102,141.453 715.13,143.283 714.637,145.04 z" fill="#F8991C"/>
  </g>
</svg>
